<svg id="Layer_1" data-name="Layer 1" xmlns="http://www.w3.org/2000/svg" viewBox="0 0 60 60"><title>icons</title><path d="M36.54,34.33,27.3,23.73,48,5.75A4.31,4.31,0,0,1,54,6.17l3.57,4.11a4.31,4.31,0,0,1-.42,6.08ZM30.13,23.92l6.61,7.59L55.88,14.84a2.31,2.31,0,0,0,.23-3.26L52.53,7.48a2.31,2.31,0,0,0-3.26-.23ZM6.61,55.31a4.8,4.8,0,0,1-3.47-1.44,4.8,4.8,0,0,1-1.5-3.49L1.33,10.63A4.8,4.8,0,0,1,2.77,7.11a4.8,4.8,0,0,1,3.49-1.5l6.48-.05v1a4.74,4.74,0,0,0,1.49,3.49,4.88,4.88,0,0,0,3.51,1.43A4.74,4.74,0,0,0,21.24,10a4.74,4.74,0,0,0,1.43-3.51v-1l6.5-.08a4.79,4.79,0,0,1,3.52,1.44,4.8,4.8,0,0,1,1.49,3.49l0,5-2,0,0-5a2.83,2.83,0,0,0-.9-2.08,2.86,2.86,0,0,0-2.1-.86l-4.57.06a6.72,6.72,0,0,1-1.95,3.94,6.93,6.93,0,0,1-9.83.08,6.72,6.72,0,0,1-2-3.9l-4.55,0a2.83,2.83,0,0,0-2.08.9,2.83,2.83,0,0,0-.86,2.1l.31,39.75a2.83,2.83,0,0,0,.9,2.08,2.88,2.88,0,0,0,2.1.86l4.57,0a7,7,0,0,1,6.85-6A7,7,0,0,1,25,53.18l4.59,0a3,3,0,0,0,2.94-3L32.44,39.9l2,0,.09,10.25a5,5,0,0,1-4.93,5l-6.52.05v-1a5,5,0,0,0-5-4.92,5,5,0,0,0-4.92,5v1l-6.51,0Zm9-12.06,9.79-16.85,8.25,9.48ZM25.71,29.81l-5.44,9.36,10-4.1Z"/></svg>