<svg id="Layer_1" data-name="Layer 1" xmlns="http://www.w3.org/2000/svg" viewBox="0 0 60 60"><title>icons</title><path d="M55,3.61H22.54A3.52,3.52,0,0,0,19,7.13V19.18a11.19,11.19,0,1,0,13.09,11c0-.22,0-.43,0-.65h8V39.9L52.44,29.56H55A3.52,3.52,0,0,0,58.5,26V7.13A3.52,3.52,0,0,0,55,3.61ZM20.92,39.4a9.2,9.2,0,1,1,9.2-9.2A9.21,9.21,0,0,1,20.92,39.4ZM56.5,26A1.52,1.52,0,0,1,55,27.56H51.71L42,35.63V27.56H31.79a11.21,11.21,0,0,0-4.3-6.4H50.62v-2H26.9v1.6A11.12,11.12,0,0,0,21,19V7.13a1.52,1.52,0,0,1,1.52-1.52H55A1.52,1.52,0,0,1,56.5,7.13ZM29,43.61H12.3A10.81,10.81,0,0,0,1.5,54.41v2H39.76v-2A10.81,10.81,0,0,0,29,43.61ZM3.5,54.39a8.81,8.81,0,0,1,8.8-8.78H29a8.81,8.81,0,0,1,8.8,8.78ZM26.9,13.29H50.62v-2H26.9Z"/></svg>