<svg id="Layer_1" data-name="Layer 1" xmlns="http://www.w3.org/2000/svg" viewBox="0 0 60 60"><title>icons</title><path d="M43.38,41.07H16.62A13.59,13.59,0,0,0,3,54.64V58.5H57V54.64A13.59,13.59,0,0,0,43.38,41.07ZM55,56.5H5V54.64A11.58,11.58,0,0,1,16.62,43.07H43.38A11.58,11.58,0,0,1,55,54.64ZM41,32.93a15.6,15.6,0,1,0-18.17,2.14l1-1.75a13.6,13.6,0,1,1,15.84-1.87ZM12.62,28.56l.39,0,1.31-.1-.62-1.69a14.83,14.83,0,0,1-1.24-5.3,17.95,17.95,0,0,1,35.9,0,14.69,14.69,0,0,1-1.12,4.9L47,27h0c-1.73,4.71-6.86,7.59-14.23,8.1-.86-.79-2.66-1.09-4.38-1.09-2.37,0-4.89.57-4.89,2.18S26,38.41,28.4,38.41c1.85,0,3.8-.35,4.56-1.28,7.83-.55,13.42-3.65,15.64-8.73a5.35,5.35,0,0,0,3.7-1.73,7.91,7.91,0,0,0,2-4.61,7.12,7.12,0,0,0-1.26-4.93,5.91,5.91,0,0,0-3.87-2.45,20,20,0,0,0-37.54,0A5.93,5.93,0,0,0,8,17a7.13,7.13,0,0,0-1.4,4.89C6.93,25.7,9.52,28.56,12.62,28.56ZM28.4,36.41a10.06,10.06,0,0,1-2-.18,10.88,10.88,0,0,1,3.93,0A10.06,10.06,0,0,1,28.4,36.41ZM49.86,17a4.1,4.1,0,0,1,1.58,1.34,5.13,5.13,0,0,1,.89,3.55,5.91,5.91,0,0,1-1.48,3.44,3.63,3.63,0,0,1-1.45,1,14.57,14.57,0,0,0,1-4.8A19.92,19.92,0,0,0,49.86,17ZM9.62,18.18A4.17,4.17,0,0,1,11,17a19.92,19.92,0,0,0-.5,4.43,14.23,14.23,0,0,0,1,4.86c-1.58-.68-2.64-2.67-2.79-4.61A5.13,5.13,0,0,1,9.62,18.18Z"/></svg>