<svg id="Layer_1" data-name="Layer 1" xmlns="http://www.w3.org/2000/svg" viewBox="0 0 60 60"><title>icons</title><path d="M48.33,17.49a4.46,4.46,0,0,0-1.39-3.24,4.63,4.63,0,0,0-3.26-1.33L39.61,13l-.06-7.13a4.22,4.22,0,0,0-1.31-3.07A4.22,4.22,0,0,0,35.17,1.5h0l-5.67.07v1A3.88,3.88,0,0,1,28.3,5.44a4,4,0,0,1-5.74,0,3.88,3.88,0,0,1-1.22-2.86v-1l-5.65,0A4.23,4.23,0,0,0,12.61,3a4.22,4.22,0,0,0-1.26,3.09l.26,33.76A4.41,4.41,0,0,0,16,44.18h2.48l.08,9.76a4.65,4.65,0,0,0,4.61,4.57h0l6,0v-1A4.45,4.45,0,0,1,33.58,53a4.31,4.31,0,0,1,3.13,1.28A4.23,4.23,0,0,1,38,57.4v1l6-.05a4.64,4.64,0,0,0,4.57-4.65Zm-28.73-3a4.46,4.46,0,0,0-1.33,3.26l.19,24.41H16a2.29,2.29,0,0,1-1.67-.69,2.26,2.26,0,0,1-.72-1.66L13.35,6.07A2.23,2.23,0,0,1,14,4.4a2.23,2.23,0,0,1,1.66-.72l3.73,0a5.85,5.85,0,0,0,1.73,3.27A5.86,5.86,0,0,0,25.4,8.66h.06a5.86,5.86,0,0,0,4.27-1.82,5.86,5.86,0,0,0,1.68-3.3l3.75,0a2.32,2.32,0,0,1,1.67.69,2.23,2.23,0,0,1,.72,1.66L37.62,14h.06a4.45,4.45,0,0,1-4.39,4.46h0a4.45,4.45,0,0,1-4.42-4.39v-1l-6,0A4.46,4.46,0,0,0,19.59,14.5Zm26.3,41.06a2.49,2.49,0,0,1-1.83.79l-4.1,0a6.21,6.21,0,0,0-1.85-3.52A6.31,6.31,0,0,0,33.56,51a6.47,6.47,0,0,0-6.31,5.48l-4.08,0h0a2.65,2.65,0,0,1-2.61-2.59l-.28-36.17a2.64,2.64,0,0,1,2.59-2.63l4.06,0a6.47,6.47,0,0,0,6.34,5.37h.06A6.47,6.47,0,0,0,39.62,15l4.08-.05a2.58,2.58,0,0,1,1.84.76,2.49,2.49,0,0,1,.79,1.83l.32,36.21A2.45,2.45,0,0,1,45.89,55.56Z"/></svg>