<svg id="Layer_1" data-name="Layer 1" xmlns="http://www.w3.org/2000/svg" viewBox="0 0 60 60"><title>icons</title><path d="M47.34,52.79v-1A4.81,4.81,0,0,0,42.55,47h0l0-2h.06a6.83,6.83,0,0,1,6.7,5.73l4.42,0a2.88,2.88,0,0,0,2.82-2.87L56.16,9.28a2.71,2.71,0,0,0-.86-2,2.66,2.66,0,0,0-2-.83l-4.4.05A6.53,6.53,0,0,1,47,10.32a6.56,6.56,0,0,1-4.77,2,6.63,6.63,0,0,1-4.8-2,6.54,6.54,0,0,1-2-3.77l-4.38,0a2.88,2.88,0,0,0-2.82,2.87l0,2.78-2,0,0-2.77a4.68,4.68,0,0,1,1.4-3.43,4.69,4.69,0,0,1,3.41-1.46l6.31-.05v1A4.57,4.57,0,0,0,38.81,9a4.71,4.71,0,0,0,3.39,1.38,4.57,4.57,0,0,0,3.36-1.44,4.56,4.56,0,0,0,1.38-3.38v-1l6.33-.08h0a4.68,4.68,0,0,1,3.39,1.4,4.68,4.68,0,0,1,1.46,3.41l.34,38.58a4.88,4.88,0,0,1-4.81,4.89ZM22.76,39.07A12.21,12.21,0,1,1,35,26.86,12.23,12.23,0,0,1,22.76,39.07Zm0-22.42A10.21,10.21,0,1,0,33,26.86,10.22,10.22,0,0,0,22.76,16.64Zm20.62,38.9H1.5V52.49a10.81,10.81,0,0,1,10.8-10.8H32.57a10.81,10.81,0,0,1,10.8,10.8Zm-39.87-2H41.37V52.49a8.81,8.81,0,0,0-8.8-8.8H12.3a8.81,8.81,0,0,0-8.8,8.8Z"/></svg>